<svg xmlns="http://www.w3.org/2000/svg" viewBox="0 0 164.97 85.25"><defs><style>.cls-1{fill:url(#linear-gradient);}.cls-2{fill:#0cafc7;}</style><linearGradient id="linear-gradient" x1="680.94" y1="383.6" x2="766" y2="383.6" gradientUnits="userSpaceOnUse"><stop offset="0" stop-color="#127187"/><stop offset="0.6" stop-color="#0e9db4"/><stop offset="0.83" stop-color="#0cafc7"/></linearGradient></defs><title>stackcommerce-icon-primary-rgb</title><path class="cls-1" d="M723.55,341a41.92,41.92,0,0,0-37.28,21.95A44,44,0,0,0,682.35,373c-.19.74-.44,2-.59,2.74a36.12,36.12,0,0,0-.82,7.84v.32a43.09,43.09,0,0,0,3.75,17.58A69.49,69.49,0,0,0,694,376.62l-.09.5,0,0c2.51-14.35,13.77-25.43,29.29-25.43,17.2,0,30.3,14.36,30.3,31.88v.32c0,17.2-12.31,31.4-30,31.4-13,0-23.53-8.14-27.91-19.68a56.72,56.72,0,0,1-7,12.84,41.61,41.61,0,0,0,34.57,17.73A42.36,42.36,0,0,0,766,383.6v-.32A41.93,41.93,0,0,0,723.55,341Z" transform="translate(-601.03 -340.99)"/><path class="cls-2" d="M723.58,341a42,42,0,0,0-41.84,34.85C675.36,407.79,654.12,414,646,415.2c-.82.06-1.63.12-2.47.12-.5,0-1,0-1.47,0l-.63,0a29.13,29.13,0,0,1-22.16-12.79,33.18,33.18,0,0,1-5.72-18.85h-.07v-.3c0-17.52,12.63-31.57,29.21-31.57,9.79,0,16.42,4.42,22.26,9.79a6.3,6.3,0,0,0,3.95,1.42,5.83,5.83,0,0,0,5.84-5.84,5.71,5.71,0,0,0-1.9-4.26c-7.26-6.63-16.42-11.84-30-11.84C619,341,601,360.56,601,383.61v.32c0,22.89,18,42.31,41.84,42.31.22,0,.43,0,.65,0h0a46.74,46.74,0,0,0,41.13-24.51A69.26,69.26,0,0,0,694,376.77l0-.07c2.66-14.13,13.84-25,29.21-25,14.88,0,26.67,10.75,29.59,25h12.63A41.81,41.81,0,0,0,723.58,341Z" transform="translate(-601.03 -340.99)"/></svg>
